{
	"asset":{
		"generator":"Khronos glTF Blender I/O v5.0.21",
		"version":"2.0"
	},
	"scene":0,
	"scenes":[
		{
			"name":"Scene",
			"nodes":[
				0,
				1
			]
		}
	],
	"nodes":[
		{
			"mesh":0,
			"name":"Bridge_5x1"
		},
		{
			"mesh":1,
			"name":"Bridge_5x1-colonly"
		}
	],
	"meshes":[
		{
			"name":"Cube.001",
			"primitives":[
				{
					"attributes":{
						"POSITION":0,
						"NORMAL":1,
						"TEXCOORD_0":2
					},
					"indices":3
				}
			]
		},
		{
			"name":"Cube.002",
			"primitives":[
				{
					"attributes":{
						"POSITION":4,
						"NORMAL":5,
						"TEXCOORD_0":6
					},
					"indices":7
				}
			]
		}
	],
	"accessors":[
		{
			"bufferView":0,
			"componentType":5126,
			"count":678,
			"max":[
				2.5,
				0.09999999403953552,
				0.5
			],
			"min":[
				-2.5,
				-0.09999999403953552,
				-0.5
			],
			"type":"VEC3"
		},
		{
			"bufferView":1,
			"componentType":5126,
			"count":678,
			"type":"VEC3"
		},
		{
			"bufferView":2,
			"componentType":5126,
			"count":678,
			"type":"VEC2"
		},
		{
			"bufferView":3,
			"componentType":5123,
			"count":1740,
			"type":"SCALAR"
		},
		{
			"bufferView":4,
			"componentType":5126,
			"count":24,
			"max":[
				2.5,
				0.09999999403953552,
				0.5
			],
			"min":[
				-2.5,
				-0.09999999403953552,
				-0.5
			],
			"type":"VEC3"
		},
		{
			"bufferView":5,
			"componentType":5126,
			"count":24,
			"type":"VEC3"
		},
		{
			"bufferView":6,
			"componentType":5126,
			"count":24,
			"type":"VEC2"
		},
		{
			"bufferView":7,
			"componentType":5123,
			"count":36,
			"type":"SCALAR"
		}
	],
	"bufferViews":[
		{
			"buffer":0,
			"byteLength":8136,
			"byteOffset":0,
			"target":34962
		},
		{
			"buffer":0,
			"byteLength":8136,
			"byteOffset":8136,
			"target":34962
		},
		{
			"buffer":0,
			"byteLength":5424,
			"byteOffset":16272,
			"target":34962
		},
		{
			"buffer":0,
			"byteLength":3480,
			"byteOffset":21696,
			"target":34963
		},
		{
			"buffer":0,
			"byteLength":288,
			"byteOffset":25176,
			"target":34962
		},
		{
			"buffer":0,
			"byteLength":288,
			"byteOffset":25464,
			"target":34962
		},
		{
			"buffer":0,
			"byteLength":192,
			"byteOffset":25752,
			"target":34962
		},
		{
			"buffer":0,
			"byteLength":72,
			"byteOffset":25944,
			"target":34963
		}
	],
	"buffers":[
		{
			"byteLength":26016,
			"uri":"Bridge_5x1.bin"
		}
	]
}
