{
	"asset":{
		"generator":"Khronos glTF Blender I/O v5.0.21",
		"version":"2.0"
	},
	"scene":0,
	"scenes":[
		{
			"name":"Scene",
			"nodes":[
				0,
				1
			]
		}
	],
	"nodes":[
		{
			"mesh":0,
			"name":"GridCube",
			"scale":[
				0.5,
				0.5,
				0.5
			]
		},
		{
			"mesh":1,
			"name":"GridCube-colonly",
			"scale":[
				0.5,
				0.5,
				0.5
			]
		}
	],
	"materials":[
		{
			"doubleSided":true,
			"name":"GridCubeBaseMaterial",
			"pbrMetallicRoughness":{
				"baseColorTexture":{
					"index":0
				},
				"metallicFactor":0,
				"roughnessFactor":0.5
			}
		}
	],
	"meshes":[
		{
			"name":"Cube.001",
			"primitives":[
				{
					"attributes":{
						"POSITION":0,
						"NORMAL":1,
						"TEXCOORD_0":2
					},
					"indices":3,
					"material":0
				}
			]
		},
		{
			"name":"Cube.003",
			"primitives":[
				{
					"attributes":{
						"POSITION":4,
						"NORMAL":5,
						"TEXCOORD_0":6
					},
					"indices":7
				}
			]
		}
	],
	"textures":[
		{
			"sampler":0,
			"source":0
		}
	],
	"images":[
		{
			"mimeType":"image/png",
			"name":"Prototype_Grid_Gray_04-512x512",
			"uri":"Prototype_Grid_Gray_04-512x512.png"
		}
	],
	"accessors":[
		{
			"bufferView":0,
			"componentType":5126,
			"count":726,
			"max":[
				1,
				1,
				1
			],
			"min":[
				-1,
				-1,
				-1
			],
			"type":"VEC3"
		},
		{
			"bufferView":1,
			"componentType":5126,
			"count":726,
			"type":"VEC3"
		},
		{
			"bufferView":2,
			"componentType":5126,
			"count":726,
			"type":"VEC2"
		},
		{
			"bufferView":3,
			"componentType":5123,
			"count":3600,
			"type":"SCALAR"
		},
		{
			"bufferView":4,
			"componentType":5126,
			"count":24,
			"max":[
				1,
				1,
				1
			],
			"min":[
				-1,
				-1,
				-1
			],
			"type":"VEC3"
		},
		{
			"bufferView":5,
			"componentType":5126,
			"count":24,
			"type":"VEC3"
		},
		{
			"bufferView":6,
			"componentType":5126,
			"count":24,
			"type":"VEC2"
		},
		{
			"bufferView":7,
			"componentType":5123,
			"count":36,
			"type":"SCALAR"
		}
	],
	"bufferViews":[
		{
			"buffer":0,
			"byteLength":8712,
			"byteOffset":0,
			"target":34962
		},
		{
			"buffer":0,
			"byteLength":8712,
			"byteOffset":8712,
			"target":34962
		},
		{
			"buffer":0,
			"byteLength":5808,
			"byteOffset":17424,
			"target":34962
		},
		{
			"buffer":0,
			"byteLength":7200,
			"byteOffset":23232,
			"target":34963
		},
		{
			"buffer":0,
			"byteLength":288,
			"byteOffset":30432,
			"target":34962
		},
		{
			"buffer":0,
			"byteLength":288,
			"byteOffset":30720,
			"target":34962
		},
		{
			"buffer":0,
			"byteLength":192,
			"byteOffset":31008,
			"target":34962
		},
		{
			"buffer":0,
			"byteLength":72,
			"byteOffset":31200,
			"target":34963
		}
	],
	"samplers":[
		{
			"magFilter":9729,
			"minFilter":9987
		}
	],
	"buffers":[
		{
			"byteLength":31272,
			"uri":"GridCube.bin"
		}
	]
}
