{
	"asset":{
		"generator":"Khronos glTF Blender I/O v5.0.21",
		"version":"2.0"
	},
	"scene":0,
	"scenes":[
		{
			"name":"Scene",
			"nodes":[
				0,
				1,
				2,
				3,
				4,
				5,
				6,
				7,
				8,
				9,
				10,
				11
			]
		}
	],
	"nodes":[
		{
			"mesh":0,
			"name":"Floor"
		},
		{
			"mesh":1,
			"name":"RightWall"
		},
		{
			"mesh":2,
			"name":"BackWall"
		},
		{
			"mesh":3,
			"name":"LeftWall"
		},
		{
			"mesh":4,
			"name":"FrontWallWithDoorway"
		},
		{
			"mesh":5,
			"name":"Ceiling"
		},
		{
			"mesh":6,
			"name":"BackWall-colonly"
		},
		{
			"mesh":7,
			"name":"Ceiling-colonly"
		},
		{
			"mesh":8,
			"name":"Floor-colonly"
		},
		{
			"mesh":9,
			"name":"LeftWall-colonly"
		},
		{
			"mesh":10,
			"name":"RightWall-colonly"
		},
		{
			"mesh":11,
			"name":"FrontWallWithDoorway-colonly"
		}
	],
	"meshes":[
		{
			"name":"Cube.007",
			"primitives":[
				{
					"attributes":{
						"POSITION":0,
						"NORMAL":1,
						"TEXCOORD_0":2
					},
					"indices":3
				}
			]
		},
		{
			"name":"Cube.009",
			"primitives":[
				{
					"attributes":{
						"POSITION":4,
						"NORMAL":5,
						"TEXCOORD_0":6
					},
					"indices":7
				}
			]
		},
		{
			"name":"Cube.016",
			"primitives":[
				{
					"attributes":{
						"POSITION":8,
						"NORMAL":9,
						"TEXCOORD_0":10
					},
					"indices":11
				}
			]
		},
		{
			"name":"Cube.017",
			"primitives":[
				{
					"attributes":{
						"POSITION":12,
						"NORMAL":13,
						"TEXCOORD_0":14
					},
					"indices":15
				}
			]
		},
		{
			"name":"Cube.018",
			"primitives":[
				{
					"attributes":{
						"POSITION":16,
						"NORMAL":17,
						"TEXCOORD_0":18
					},
					"indices":19
				}
			]
		},
		{
			"name":"Cube.025",
			"primitives":[
				{
					"attributes":{
						"POSITION":20,
						"NORMAL":21,
						"TEXCOORD_0":22
					},
					"indices":23
				}
			]
		},
		{
			"name":"Cube.030",
			"primitives":[
				{
					"attributes":{
						"POSITION":24,
						"NORMAL":25,
						"TEXCOORD_0":26
					},
					"indices":27
				}
			]
		},
		{
			"name":"Cube.027",
			"primitives":[
				{
					"attributes":{
						"POSITION":28,
						"NORMAL":29,
						"TEXCOORD_0":30
					},
					"indices":31
				}
			]
		},
		{
			"name":"Cube.002",
			"primitives":[
				{
					"attributes":{
						"POSITION":32,
						"NORMAL":33,
						"TEXCOORD_0":34
					},
					"indices":31
				}
			]
		},
		{
			"name":"Cube.028",
			"primitives":[
				{
					"attributes":{
						"POSITION":35,
						"NORMAL":36,
						"TEXCOORD_0":37
					},
					"indices":31
				}
			]
		},
		{
			"name":"Cube.029",
			"primitives":[
				{
					"attributes":{
						"POSITION":38,
						"NORMAL":39,
						"TEXCOORD_0":40
					},
					"indices":31
				}
			]
		},
		{
			"name":"Cube.031",
			"primitives":[
				{
					"attributes":{
						"POSITION":41,
						"NORMAL":42,
						"TEXCOORD_0":43
					},
					"indices":44
				}
			]
		}
	],
	"accessors":[
		{
			"bufferView":0,
			"componentType":5126,
			"count":4160,
			"max":[
				2.700000047683716,
				0.09999999403953552,
				2.5
			],
			"min":[
				-2.5,
				-0.09999999403953552,
				-2.5
			],
			"type":"VEC3"
		},
		{
			"bufferView":1,
			"componentType":5126,
			"count":4160,
			"type":"VEC3"
		},
		{
			"bufferView":2,
			"componentType":5126,
			"count":4160,
			"type":"VEC2"
		},
		{
			"bufferView":3,
			"componentType":5123,
			"count":11100,
			"type":"SCALAR"
		},
		{
			"bufferView":4,
			"componentType":5126,
			"count":1946,
			"max":[
				2.700000524520874,
				3.1000006198883057,
				-2.299999952316284
			],
			"min":[
				-2.299999475479126,
				0.10000026226043701,
				-2.5000014305114746
			],
			"type":"VEC3"
		},
		{
			"bufferView":5,
			"componentType":5126,
			"count":1946,
			"type":"VEC3"
		},
		{
			"bufferView":6,
			"componentType":5126,
			"count":1946,
			"type":"VEC2"
		},
		{
			"bufferView":7,
			"componentType":5123,
			"count":4980,
			"type":"SCALAR"
		},
		{
			"bufferView":8,
			"componentType":5126,
			"count":1946,
			"max":[
				-2.2999987602233887,
				3.1000003814697266,
				2.5
			],
			"min":[
				-2.500000238418579,
				0.10000002384185791,
				-2.5
			],
			"type":"VEC3"
		},
		{
			"bufferView":9,
			"componentType":5126,
			"count":1946,
			"type":"VEC3"
		},
		{
			"bufferView":10,
			"componentType":5126,
			"count":1946,
			"type":"VEC2"
		},
		{
			"bufferView":11,
			"componentType":5123,
			"count":4980,
			"type":"SCALAR"
		},
		{
			"bufferView":12,
			"componentType":5126,
			"count":1946,
			"max":[
				2.700000047683716,
				3.1000001430511475,
				2.5000007152557373
			],
			"min":[
				-2.299999952316284,
				0.09999978542327881,
				2.299999237060547
			],
			"type":"VEC3"
		},
		{
			"bufferView":13,
			"componentType":5126,
			"count":1946,
			"type":"VEC3"
		},
		{
			"bufferView":14,
			"componentType":5126,
			"count":1946,
			"type":"VEC2"
		},
		{
			"bufferView":15,
			"componentType":5123,
			"count":4980,
			"type":"SCALAR"
		},
		{
			"bufferView":16,
			"componentType":5126,
			"count":3129,
			"max":[
				2.900001049041748,
				3.299999952316284,
				2.500000476837158
			],
			"min":[
				2.6999993324279785,
				-0.09999999403953552,
				-2.500000238418579
			],
			"type":"VEC3"
		},
		{
			"bufferView":17,
			"componentType":5126,
			"count":3129,
			"type":"VEC3"
		},
		{
			"bufferView":18,
			"componentType":5126,
			"count":3129,
			"type":"VEC2"
		},
		{
			"bufferView":19,
			"componentType":5123,
			"count":6936,
			"type":"SCALAR"
		},
		{
			"bufferView":20,
			"componentType":5126,
			"count":4166,
			"max":[
				2.700000047683716,
				3.299999713897705,
				2.499999761581421
			],
			"min":[
				-2.5,
				3.0999999046325684,
				-2.500000238418579
			],
			"type":"VEC3"
		},
		{
			"bufferView":21,
			"componentType":5126,
			"count":4166,
			"type":"VEC3"
		},
		{
			"bufferView":22,
			"componentType":5126,
			"count":4166,
			"type":"VEC2"
		},
		{
			"bufferView":23,
			"componentType":5123,
			"count":11100,
			"type":"SCALAR"
		},
		{
			"bufferView":24,
			"componentType":5126,
			"count":24,
			"max":[
				-2.2999987602233887,
				3.0999999046325684,
				2.5
			],
			"min":[
				-2.4999990463256836,
				0.10000002384185791,
				-2.5
			],
			"type":"VEC3"
		},
		{
			"bufferView":25,
			"componentType":5126,
			"count":24,
			"type":"VEC3"
		},
		{
			"bufferView":26,
			"componentType":5126,
			"count":24,
			"type":"VEC2"
		},
		{
			"bufferView":27,
			"componentType":5123,
			"count":36,
			"type":"SCALAR"
		},
		{
			"bufferView":28,
			"componentType":5126,
			"count":24,
			"max":[
				2.700000047683716,
				3.299999713897705,
				2.499999761581421
			],
			"min":[
				-2.499999761581421,
				3.0999999046325684,
				-2.500000238418579
			],
			"type":"VEC3"
		},
		{
			"bufferView":29,
			"componentType":5126,
			"count":24,
			"type":"VEC3"
		},
		{
			"bufferView":30,
			"componentType":5126,
			"count":24,
			"type":"VEC2"
		},
		{
			"bufferView":31,
			"componentType":5123,
			"count":36,
			"type":"SCALAR"
		},
		{
			"bufferView":32,
			"componentType":5126,
			"count":24,
			"max":[
				2.6999998092651367,
				0.09999999403953552,
				2.5
			],
			"min":[
				-2.5,
				-0.09999999403953552,
				-2.5
			],
			"type":"VEC3"
		},
		{
			"bufferView":33,
			"componentType":5126,
			"count":24,
			"type":"VEC3"
		},
		{
			"bufferView":34,
			"componentType":5126,
			"count":24,
			"type":"VEC2"
		},
		{
			"bufferView":35,
			"componentType":5126,
			"count":24,
			"max":[
				2.700000047683716,
				3.0999996662139893,
				2.499999761581421
			],
			"min":[
				-2.299999952316284,
				0.09999966621398926,
				2.299999952316284
			],
			"type":"VEC3"
		},
		{
			"bufferView":36,
			"componentType":5126,
			"count":24,
			"type":"VEC3"
		},
		{
			"bufferView":37,
			"componentType":5126,
			"count":24,
			"type":"VEC2"
		},
		{
			"bufferView":38,
			"componentType":5126,
			"count":24,
			"max":[
				2.700000524520874,
				3.1000001430511475,
				-2.3000009059906006
			],
			"min":[
				-2.299999475479126,
				0.10000014305114746,
				-2.5000007152557373
			],
			"type":"VEC3"
		},
		{
			"bufferView":39,
			"componentType":5126,
			"count":24,
			"type":"VEC3"
		},
		{
			"bufferView":40,
			"componentType":5126,
			"count":24,
			"type":"VEC2"
		},
		{
			"bufferView":41,
			"componentType":5126,
			"count":48,
			"max":[
				2.8999993801116943,
				3.3000001907348633,
				2.5
			],
			"min":[
				2.6999995708465576,
				-0.09999978542327881,
				-2.5
			],
			"type":"VEC3"
		},
		{
			"bufferView":42,
			"componentType":5126,
			"count":48,
			"type":"VEC3"
		},
		{
			"bufferView":43,
			"componentType":5126,
			"count":48,
			"type":"VEC2"
		},
		{
			"bufferView":44,
			"componentType":5123,
			"count":96,
			"type":"SCALAR"
		}
	],
	"bufferViews":[
		{
			"buffer":0,
			"byteLength":49920,
			"byteOffset":0,
			"target":34962
		},
		{
			"buffer":0,
			"byteLength":49920,
			"byteOffset":49920,
			"target":34962
		},
		{
			"buffer":0,
			"byteLength":33280,
			"byteOffset":99840,
			"target":34962
		},
		{
			"buffer":0,
			"byteLength":22200,
			"byteOffset":133120,
			"target":34963
		},
		{
			"buffer":0,
			"byteLength":23352,
			"byteOffset":155320,
			"target":34962
		},
		{
			"buffer":0,
			"byteLength":23352,
			"byteOffset":178672,
			"target":34962
		},
		{
			"buffer":0,
			"byteLength":15568,
			"byteOffset":202024,
			"target":34962
		},
		{
			"buffer":0,
			"byteLength":9960,
			"byteOffset":217592,
			"target":34963
		},
		{
			"buffer":0,
			"byteLength":23352,
			"byteOffset":227552,
			"target":34962
		},
		{
			"buffer":0,
			"byteLength":23352,
			"byteOffset":250904,
			"target":34962
		},
		{
			"buffer":0,
			"byteLength":15568,
			"byteOffset":274256,
			"target":34962
		},
		{
			"buffer":0,
			"byteLength":9960,
			"byteOffset":289824,
			"target":34963
		},
		{
			"buffer":0,
			"byteLength":23352,
			"byteOffset":299784,
			"target":34962
		},
		{
			"buffer":0,
			"byteLength":23352,
			"byteOffset":323136,
			"target":34962
		},
		{
			"buffer":0,
			"byteLength":15568,
			"byteOffset":346488,
			"target":34962
		},
		{
			"buffer":0,
			"byteLength":9960,
			"byteOffset":362056,
			"target":34963
		},
		{
			"buffer":0,
			"byteLength":37548,
			"byteOffset":372016,
			"target":34962
		},
		{
			"buffer":0,
			"byteLength":37548,
			"byteOffset":409564,
			"target":34962
		},
		{
			"buffer":0,
			"byteLength":25032,
			"byteOffset":447112,
			"target":34962
		},
		{
			"buffer":0,
			"byteLength":13872,
			"byteOffset":472144,
			"target":34963
		},
		{
			"buffer":0,
			"byteLength":49992,
			"byteOffset":486016,
			"target":34962
		},
		{
			"buffer":0,
			"byteLength":49992,
			"byteOffset":536008,
			"target":34962
		},
		{
			"buffer":0,
			"byteLength":33328,
			"byteOffset":586000,
			"target":34962
		},
		{
			"buffer":0,
			"byteLength":22200,
			"byteOffset":619328,
			"target":34963
		},
		{
			"buffer":0,
			"byteLength":288,
			"byteOffset":641528,
			"target":34962
		},
		{
			"buffer":0,
			"byteLength":288,
			"byteOffset":641816,
			"target":34962
		},
		{
			"buffer":0,
			"byteLength":192,
			"byteOffset":642104,
			"target":34962
		},
		{
			"buffer":0,
			"byteLength":72,
			"byteOffset":642296,
			"target":34963
		},
		{
			"buffer":0,
			"byteLength":288,
			"byteOffset":642368,
			"target":34962
		},
		{
			"buffer":0,
			"byteLength":288,
			"byteOffset":642656,
			"target":34962
		},
		{
			"buffer":0,
			"byteLength":192,
			"byteOffset":642944,
			"target":34962
		},
		{
			"buffer":0,
			"byteLength":72,
			"byteOffset":643136,
			"target":34963
		},
		{
			"buffer":0,
			"byteLength":288,
			"byteOffset":643208,
			"target":34962
		},
		{
			"buffer":0,
			"byteLength":288,
			"byteOffset":643496,
			"target":34962
		},
		{
			"buffer":0,
			"byteLength":192,
			"byteOffset":643784,
			"target":34962
		},
		{
			"buffer":0,
			"byteLength":288,
			"byteOffset":643976,
			"target":34962
		},
		{
			"buffer":0,
			"byteLength":288,
			"byteOffset":644264,
			"target":34962
		},
		{
			"buffer":0,
			"byteLength":192,
			"byteOffset":644552,
			"target":34962
		},
		{
			"buffer":0,
			"byteLength":288,
			"byteOffset":644744,
			"target":34962
		},
		{
			"buffer":0,
			"byteLength":288,
			"byteOffset":645032,
			"target":34962
		},
		{
			"buffer":0,
			"byteLength":192,
			"byteOffset":645320,
			"target":34962
		},
		{
			"buffer":0,
			"byteLength":576,
			"byteOffset":645512,
			"target":34962
		},
		{
			"buffer":0,
			"byteLength":576,
			"byteOffset":646088,
			"target":34962
		},
		{
			"buffer":0,
			"byteLength":384,
			"byteOffset":646664,
			"target":34962
		},
		{
			"buffer":0,
			"byteLength":192,
			"byteOffset":647048,
			"target":34963
		}
	],
	"buffers":[
		{
			"byteLength":647240,
			"uri":"Room_5x5x3.bin"
		}
	]
}
